# xmcd
#
# Track frame offsets: 
#        150
#        15548
#        29377
#        43662
#        62547
#        78111
#        93354
#        106092
#        120825
#        140611
#        154584
#        183709
#        200532
#        216453
#        230359
#        244798
#        254988
#        269836
#        287111
#        301529
#        314632
#
# Disc length: 4432 seconds
#
# Revision: 0
# Processed by: cddbd v1.5.2PL0 Copyright (c) Steve Scherf et al.
# Submitted via: ExactAudioCopyFreeDBPlugin 1.0
#
DISCID=2b114e15
DTITLE=Various Artist - Modern Northern Soul
DYEAR=2015
DGENRE=Soul
TTITLE0=Men of North Country - I'm Com'un Home in the Morn'un
TTITLE1=Andy Lewis and Paul Weller - Are You Trying to Be Lonely?
TTITLE2=Lord Large and Dean Parrish - Left, Right and Centre
TTITLE3=Magnus Carlson - From Now On
TTITLE4=New Street Adventure - Lucky Lady
TTITLE5=The Third Degree - Mercy
TTITLE6=Night Trains - No More Heroes
TTITLE7=Lord Large and Clem Curtis - Stuck in a Wind Up
TTITLE8=Jasmine Kara - Ordinary Joe
TTITLE9=Andy Lewis - See You There
TTITLE10=Smoove - Coming Back (ft Jess Roberts)
TTITLE11=The Filthy Six - Girlfriend
TTITLE12=New Street Adventure - The Big AC
TTITLE13=Tony Christie - Nobody in the World
TTITLE14=Andy Lewis - (Love Is) Alive in My Heart (ft Keni Burke)
TTITLE15=Men of North Country - Pandora
TTITLE16=The Third Degree - Can't Get You Out of My Head
TTITLE17=The Dilemmas - Fahrenheit
TTITLE18=Men of North Country - Mirror Man
TTITLE19=New Street Adventure - She's an Attraction
TTITLE20=Men of North Country - I'm Com'un Home in the Morn'un (Smoove
TTITLE20=Remix)
EXTD=
EXTT0=
EXTT1=
EXTT2=
EXTT3=
EXTT4=
EXTT5=
EXTT6=
EXTT7=
EXTT8=
EXTT9=
EXTT10=
EXTT11=
EXTT12=
EXTT13=
EXTT14=
EXTT15=
EXTT16=
EXTT17=
EXTT18=
EXTT19=
EXTT20=
PLAYORDER=
